<?xml version="1.0" encoding="UTF-8"?>
<svg id="Layer_2" data-name="Layer 2" xmlns="http://www.w3.org/2000/svg" viewBox="0 0 380.97 74.86">
  <defs>
    <style>
      .cls-1 {
        fill: #29a64d;
      }

      .cls-1, .cls-2 {
        stroke-width: 0px;
      }

      .cls-2 {
        fill: #191f3e;
      }
    </style>
  </defs>
  <g id="Layer_1-2" data-name="Layer 1">
    <g>
      <path class="cls-1" d="m71.1,24.6V8.51s-1.57-.95-1.57-.95c-.51-.31-12.7-7.55-33.89-7.55S2.11,7.23,1.59,7.54l-1.59.95v34.21c0,6.94,3.72,13.43,9.71,16.94l19.92,11.65,5.93,3.56,11.7-6.95,14.12-8.26c5.99-3.51,9.71-10,9.71-16.94v-11s-35.54,20.77-35.54,20.77l-14.47-8.49c-1.14-.66-1.84-1.98-1.84-3.3v-19.05c2.91-.97,8.52-2.4,16.36-2.4s13.37,1.42,16.25,2.39v6.47l-16.29,9.52-9.28-5.46v7.7l9.28,5.48,22.82-13.31v-14.68s-1.84-.89-1.84-.89c-.32-.15-7.89-3.73-20.92-3.73s-20.7,3.57-21.02,3.73l-1.86.88v23.36c0,3.62,1.97,7.17,5.1,9l17.74,10.34,28.98-16.9c-.1,4.53-2.52,8.59-6.44,10.89l-22.53,13.14-22.55-13.24c-4-2.34-6.49-6.57-6.49-11.21V12.33c4.03-1.91,14.09-5.81,29.12-5.81s24.93,3.89,28.93,5.8v16.09s6.52-3.81,6.52-3.81Z"/>
      <g>
        <path class="cls-2" d="m98.55,35.47c1.17,5.54,5.61,8.6,11.66,8.6,4.15,0,7.29-1.53,9.4-4.52l6.49,3.79c-3.57,5.32-8.89,7.95-15.96,7.95-5.9,0-10.72-1.82-14.36-5.47-3.65-3.57-5.47-8.16-5.47-13.7,0-5.47,1.82-9.99,5.39-13.7,3.57-3.64,8.24-5.47,13.85-5.47,5.32,0,9.77,1.9,13.19,5.61,3.43,3.72,5.1,8.31,5.1,13.63,0,.8-.07,1.9-.29,3.28h-29.01Zm21.36-6.41c-1.09-5.9-5.25-8.97-10.42-8.97-5.83,0-9.91,3.43-11.01,8.97h21.43Z"/>
        <path class="cls-2" d="m132.68,13.89h7.87v4.67c2.41-3.72,6.12-5.61,11.3-5.61,8.38,0,14,5.69,14,15.02v22.38s-7.87,0-7.87,0v-21.58c0-5.47-3.13-8.46-8.16-8.46-5.54,0-9.26,3.43-9.26,10.5v19.54s-7.87,0-7.87,0V13.89Z"/>
        <path class="cls-2" d="m171.02,21.48v-7.58s0,0,0,0v-1.5s7.87-4.61,7.87-4.61v6.11s9.04,0,9.04,0v7.58h-9.04s0,17.49,0,17.49c0,3.72,1.9,4.45,5.69,4.45.95,0,2.11-.07,3.35-.15v7.07c-1.82.22-3.43.36-4.96.36-8.46,0-11.95-3.64-11.95-11.74v-17.49h0Z"/>
        <path class="cls-2" d="m364.07,21.48v-7.58s0,0,0,0v-1.5s7.87-4.62,7.87-4.62v6.11s9.04,0,9.04,0v7.58h-9.04s0,17.49,0,17.49c0,3.72,1.9,4.45,5.69,4.45.95,0,2.11-.07,3.35-.15v7.07c-1.82.22-3.43.36-4.96.36-8.46,0-11.95-3.64-11.95-11.74v-17.49h0Z"/>
        <path class="cls-2" d="m199.81,35.47c1.17,5.54,5.61,8.6,11.66,8.6,4.15,0,7.29-1.53,9.4-4.52l6.49,3.79c-3.57,5.32-8.89,7.95-15.96,7.95-5.9,0-10.72-1.82-14.36-5.47-3.65-3.57-5.47-8.16-5.47-13.7,0-5.47,1.82-9.99,5.39-13.7,3.57-3.64,8.24-5.47,13.85-5.47,5.32,0,9.77,1.9,13.19,5.61,3.43,3.72,5.1,8.31,5.1,13.63,0,.8-.07,1.9-.29,3.28h-29.01Zm21.36-6.41c-1.09-5.9-5.25-8.97-10.42-8.97-5.83,0-9.91,3.43-11.01,8.97h21.43Z"/>
        <path class="cls-2" d="m233.94,13.89h7.87v6.12c1.97-4.52,5.76-6.78,11.23-6.78v8.53c-6.78,0-11.23,2.92-11.23,10.21v18.37s-7.87,0-7.87,0V13.89Z"/>
        <path class="cls-2" d="m277.31,30.44c3.86,1.39,6.92,4.67,6.92,9.62,0,3.5-1.31,6.27-4.01,8.24-2.7,1.97-6.12,2.99-10.21,2.99-7.22,0-12.54-3.21-14.87-8.53l6.78-3.94c1.24,3.5,3.94,5.25,8.09,5.25s6.2-1.38,6.2-4.08c0-3.57-7-4.52-12.68-6.49-3.86-1.38-6.93-4.52-6.93-9.4,0-3.35,1.31-6.05,3.86-8.09,2.55-2.04,5.69-3.06,9.48-3.06,6.05,0,10.93,2.84,13.49,7.58l-6.63,3.72c-1.24-2.77-3.57-4.15-6.85-4.15-2.99,0-5.32,1.31-5.32,3.86,0,3.64,7,4.52,12.68,6.49Z"/>
        <path class="cls-2" d="m296.41,35.47c1.17,5.54,5.61,8.6,11.66,8.6,4.15,0,7.29-1.53,9.4-4.52l6.49,3.79c-3.57,5.32-8.89,7.95-15.96,7.95-5.9,0-10.72-1.82-14.36-5.47-3.65-3.57-5.47-8.16-5.47-13.7,0-5.47,1.82-9.99,5.39-13.7,3.57-3.64,8.24-5.47,13.85-5.47,5.32,0,9.77,1.9,13.19,5.61,3.43,3.72,5.1,8.31,5.1,13.63,0,.8-.07,1.9-.29,3.28h-29.01Zm21.36-6.41c-1.09-5.9-5.25-8.97-10.42-8.97-5.83,0-9.91,3.43-11.01,8.97h21.43Z"/>
        <path class="cls-2" d="m330.54.09h7.87s0,29.92,0,29.92l14.14-16.11h9.62s-16.04,17.86-16.04,17.86l16.62,18.59h-9.4s-14.94-16.84-14.94-16.84v16.84s-7.87,0-7.87,0V.09Z"/>
      </g>
    </g>
  </g>
</svg>